<?xml version="1.0" encoding="utf-8"?>
<svg xmlns="http://www.w3.org/2000/svg" x="0" y="0" viewBox="0 0 48 48" width="240" height="240">
  <polygon fill="#3dd9eb" points="40.7,37 9,37 9,13 46.4,13" />
  <polygon fill="#3dd9eb" points="13,37 8,37 8,12 1,12 1,7 13,7" />
  <circle cx="33" cy="37" r="4" fill="#6c19ff" />
  <circle cx="16" cy="37" r="4" fill="#6c19ff" />
  <path fill="#2100c4" d="M33,33c-2.2,0-4,1.8-4,4h8C37,34.8,35.2,33,33,33z" />
  <path fill="#2100c4" d="M16,33c-2.2,0-4,1.8-4,4h8C20,34.8,18.2,33,16,33z" />
  <path fill="#c2ffff" d="M26.7,30h-4V18h4V30z" />
  <path fill="#c2ffff" d="M18.7,26v-4h12v4H18.7z" />
  <rect width="4" height="4" x="22.7" y="22" fill="#fff" />
</svg>