<?xml version="1.0" encoding="utf-8"?>
<svg xmlns="http://www.w3.org/2000/svg" x="0" y="0" viewBox="0 0 48 48" width="240" height="240">
  <rect width="12.8" height="12.8" x="27.7" y="6.6" fill="#f5bc00" transform="rotate(45.001 34.096 13)" />
  <rect width="12.8" height="12.8" x="17.7" y="6.6" fill="#f55376" transform="rotate(45.001 24.096 13)" />
  <polygon fill="#3dd9eb" points="40.7,37 9,37 9,13 46.4,13" />
  <polygon fill="#3dd9eb" points="13,37 8,37 8,12 1,12 1,7 13,7" />
  <circle cx="33" cy="37" r="4" fill="#6c19ff" />
  <circle cx="16" cy="37" r="4" fill="#6c19ff" />
  <path fill="#2100c4" d="M33,33c-2.2,0-4,1.8-4,4h8C37,34.8,35.2,33,33,33z" />
  <path fill="#2100c4" d="M16,33c-2.2,0-4,1.8-4,4h8C20,34.8,18.2,33,16,33z" />
  <polygon fill="#00b3d7" points="29.1,17.1 34.1,22.1 43.2,13 15,13 24.1,22.1" />
</svg>