<?xml version="1.0" encoding="utf-8"?>
<svg xmlns="http://www.w3.org/2000/svg" x="0" y="0" viewBox="0 0 48 48" width="240" height="240">
  <polygon fill="#3dd9eb" points="13,13 13,7 1,7 1,12 8,12 8,37 40.7,37 46.4,13" />
  <circle cx="26" cy="13" r="8" fill="#f5bc00" />
  <circle cx="33" cy="37" r="4" fill="#6c19ff" />
  <circle cx="16" cy="37" r="4" fill="#6c19ff" />
  <path fill="#2100c4" d="M33,33c-2.2,0-4,1.8-4,4h8C37,34.8,35.2,33,33,33z" />
  <path fill="#eb7900" d="M26,21c4.4,0,8-3.6,8-8H18C18,17.4,21.6,21,26,21z" />
  <path fill="#2100c4" d="M16,33c-2.2,0-4,1.8-4,4h8C20,34.8,18.2,33,16,33z" />
  <path fill="#fae56b" d="M26.8,12.2h-1.6c-0.4,0-0.8-0.4-0.8-0.8c0-0.4,0.4-0.8,0.8-0.8h3.2V9h-1.6V7.4h-1.6V9c-1.3,0-2.4,1.1-2.4,2.4 c0,1.3,1,2.3,2.3,2.4v0h1.7c0.4,0,0.8,0.4,0.8,0.8c0,0.4-0.4,0.8-0.8,0.8h-3.2V17h1.6v1.6h1.6V17c1.3,0,2.4-1.1,2.4-2.4 S28.1,12.2,26.8,12.2z" />
  <path fill="#fadb00" d="M23.4,13c0.4,0.5,1,0.8,1.6,0.8v0h1.7c0.4,0,0.8,0.4,0.8,0.8s-0.4,0.8-0.8,0.8h-3.2V17h1.6v1.6h1.6V17 c1.3,0,2.4-1.1,2.4-2.4c0-0.6-0.2-1.2-0.6-1.6H23.4z" />
</svg>