<?xml version="1.0" encoding="utf-8"?>
<svg xmlns="http://www.w3.org/2000/svg" viewBox="0 0 48 48" width="240" height="240">
  <polygon fill="#f55376" points="33.952,8.476 31.536,6.059 27.006,10.59 22.475,6.059 20.059,8.476 24.59,13.006 20.059,17.536 22.475,19.952 27.006,15.422 31.536,19.952 33.952,17.536 29.422,13.006" />
  <polygon fill="#3dd9eb" points="13,13 13,7 1,7 1,12 8,12 8,37 40.729,37 46.395,13" />
  <circle cx="33" cy="37" r="4" fill="#6c19ff" />
  <circle cx="16" cy="37" r="4" fill="#6c19ff" />
  <path fill="#2100c4" d="M33,33c-2.209,0-4,1.791-4,4h8C37,34.791,35.209,33,33,33z" />
  <path fill="#2100c4" d="M16,33c-2.209,0-4,1.791-4,4h8C20,34.791,18.209,33,16,33z" />
  <polygon fill="#eb0000" points="24.584,13 24.59,13.006 20.059,17.536 22.475,19.952 27.006,15.422 31.536,19.952 33.952,17.536 29.422,13.006 29.428,13" />
</svg>