<?xml version="1.0" encoding="utf-8"?>
<svg xmlns="http://www.w3.org/2000/svg" x="0" y="0" viewBox="0 0 48 48" width="240" height="240">
  <polygon fill="#3dd9eb" points="40.7,37 9,37 9,13 46.4,13" />
  <polygon fill="#3dd9eb" points="13,37 8,37 8,12 1,12 1,7 13,7" />
  <circle cx="33" cy="37" r="4" fill="#6c19ff" />
  <circle cx="16" cy="37" r="4" fill="#6c19ff" />
  <path fill="#2100c4" d="M33,33c-2.2,0-4,1.8-4,4h8C37,34.8,35.2,33,33,33z" />
  <path fill="#2100c4" d="M16,33c-2.2,0-4,1.8-4,4h8C20,34.8,18.2,33,16,33z" />
  <rect width="10" height="5" x="20.5" y="15.5" fill="#2100c4" transform="rotate(-90 25.5 18)" />
  <rect width="3.6" height="5" x="23.7" y="8.7" fill="#6c19ff" transform="rotate(-90 25.5 11.208)" />
  <polygon fill="#6c19ff" points="25.5,3 18.9,10.4 32.1,10.4" />
</svg>